<svg width="15" height="14" viewBox="0 0 15 14" fill="none" xmlns="http://www.w3.org/2000/svg">
<path d="M14.165 2.31096C14.0649 2.21226 13.9459 2.1348 13.8152 2.08325C13.6844 2.03169 13.5445 2.00711 13.404 2.01096H12.334V1.25696C12.3358 1.08908 12.301 0.922817 12.2319 0.76979C12.1628 0.616764 12.0611 0.480656 11.934 0.370964C11.6764 0.128565 11.3348 -0.00443199 10.981 -3.5762e-05H10.439C10.2634 -0.00394191 10.0888 0.0268152 9.92509 0.0904756C9.7614 0.154136 9.61186 0.24945 9.48503 0.370964C9.35926 0.481764 9.25853 0.618088 9.18956 0.77086C9.12059 0.923632 9.08495 1.08934 9.08503 1.25696V2.01096H5.86303V1.25696C5.86483 1.08908 5.82997 0.922817 5.76088 0.76979C5.69179 0.616764 5.59015 0.480656 5.46303 0.370964C5.20514 0.128323 4.8631 -0.00469205 4.50903 -3.5762e-05H3.96803C3.79244 -0.00394191 3.61779 0.0268152 3.45409 0.0904756C3.2904 0.154136 3.14086 0.24945 3.01403 0.370964C2.88826 0.481764 2.78753 0.618088 2.71856 0.77086C2.64959 0.923632 2.61395 1.08934 2.61403 1.25696V2.01096H1.57003C1.42966 2.00824 1.29014 2.03334 1.15952 2.08483C1.0289 2.13632 0.909783 2.21318 0.809033 2.31096C0.711258 2.39833 0.633152 2.50546 0.579883 2.62527C0.526614 2.74509 0.499397 2.87485 0.500033 3.00596V12.994C0.498891 13.1282 0.527122 13.261 0.582747 13.3831C0.638372 13.5053 0.720043 13.6137 0.822033 13.701C0.922783 13.7987 1.0419 13.8756 1.17252 13.9271C1.30314 13.9786 1.44266 14.0037 1.58303 14.001H13.417C13.5574 14.0036 13.6969 13.9785 13.8275 13.927C13.9581 13.8755 14.0773 13.7987 14.178 13.701C14.28 13.6137 14.3617 13.5053 14.4173 13.3831C14.4729 13.261 14.5012 13.1282 14.5 12.994V3.00596C14.493 2.87371 14.4598 2.74416 14.4023 2.62486C14.3447 2.50555 14.2641 2.39885 14.165 2.31096ZM10.181 1.25696C10.1802 1.22319 10.1866 1.18963 10.1999 1.15856C10.2132 1.1275 10.233 1.09967 10.258 1.07696C10.3109 1.0288 10.3806 1.00331 10.452 1.00596H10.993C11.0643 1.00384 11.1336 1.02968 11.186 1.07796C11.2111 1.10067 11.2309 1.1285 11.2442 1.15956C11.2575 1.19063 11.2639 1.22419 11.263 1.25796V3.50896C11.2639 3.54274 11.2575 3.5763 11.2442 3.60736C11.2309 3.63843 11.2111 3.66626 11.186 3.68896C11.1336 3.73725 11.0643 3.76309 10.993 3.76096H10.452C10.3808 3.76309 10.3115 3.73725 10.259 3.68896C10.234 3.66626 10.2142 3.63843 10.2009 3.60736C10.1876 3.5763 10.1812 3.54274 10.182 3.50896L10.181 1.25696ZM3.72203 1.25696C3.72144 1.22328 3.7281 1.18986 3.74156 1.15898C3.75502 1.1281 3.77496 1.10047 3.80003 1.07796C3.85275 1.02944 3.92242 1.00358 3.99403 1.00596H4.53503C4.6063 1.00384 4.67557 1.02968 4.72803 1.07796C4.75305 1.10067 4.77288 1.1285 4.78617 1.15956C4.79946 1.19063 4.80589 1.22419 4.80503 1.25796V3.50896C4.80589 3.54274 4.79946 3.5763 4.78617 3.60736C4.77288 3.63843 4.75305 3.66626 4.72803 3.68896C4.67557 3.73725 4.6063 3.76309 4.53503 3.76096H3.99403C3.92242 3.76335 3.85275 3.73749 3.80003 3.68896C3.77501 3.66626 3.75518 3.63843 3.7419 3.60736C3.72861 3.5763 3.72217 3.54274 3.72303 3.50896V1.25696H3.72203ZM13.4 13.006H1.57003V5.00596H13.4V13.006Z" fill="white"/>
</svg>
