<svg width="17" height="17" viewBox="0 0 17 17" fill="none" xmlns="http://www.w3.org/2000/svg">
<path d="M15.1451 16.7024L8.49922 10.0564L1.85331 16.7024C1.64679 16.8991 1.37069 17.0057 1.08563 16.9989C0.800562 16.9922 0.529805 16.8726 0.332852 16.6664C0.126657 16.4694 0.00707693 16.1987 0.000303945 15.9136C-0.00646904 15.6285 0.100187 15.3524 0.296796 15.1459L6.9427 8.49982L0.296796 1.85375C0.199383 1.75148 0.12301 1.63104 0.0721572 1.49927C0.0213047 1.36751 -0.00301968 1.22698 0.000433644 1.08578C0.00388697 0.944585 0.0351571 0.805561 0.0923902 0.67644C0.149623 0.54732 0.231723 0.430629 0.33402 0.333249C0.431469 0.231022 0.548048 0.149015 0.677203 0.0918728C0.806358 0.0347307 0.945472 0.00365779 1.08666 0.000303064C1.22785 -0.00305166 1.36842 0.0214739 1.50014 0.0724175C1.63187 0.123361 1.75216 0.199708 1.85435 0.297191L8.50026 6.94326L15.1462 0.297191C15.3527 0.100578 15.6288 -0.00608098 15.9139 0.000692171C16.1989 0.00746532 16.4697 0.127048 16.6666 0.333249C16.8728 0.530206 16.9924 0.80097 16.9992 1.08604C17.0059 1.37111 16.8994 1.64722 16.7028 1.85375L10.0569 8.49982L16.7028 15.1459C16.8003 15.2481 16.8766 15.3685 16.9276 15.5002C16.9785 15.632 17.003 15.7724 16.9997 15.9136C16.9963 16.0548 16.9651 16.1939 16.908 16.3231C16.8509 16.4522 16.7689 16.5689 16.6666 16.6664C16.5628 16.7715 16.4393 16.855 16.3031 16.9123C16.1669 16.9696 16.0207 16.9994 15.873 17C15.7381 17.0009 15.6043 16.975 15.4794 16.924C15.3544 16.8729 15.2408 16.7976 15.1451 16.7024Z" fill="#959DB3"/>
</svg>
